<svg version="1.1" xmlns="http://www.w3.org/2000/svg" viewBox="0 0 96.17589525620309 88.85772817187706" width="288.5276857686093" height="266.57318451563117">
  <!-- svg-source:excalidraw -->
  
  <defs>
    <style class="style-fonts">
      @font-face {
        font-family: "Virgil";
        src: url("https://excalidraw.com/Virgil.woff2");
      }
      @font-face {
        font-family: "Cascadia";
        src: url("https://excalidraw.com/Cascadia.woff2");
      }
      @font-face {
        font-family: "Assistant";
        src: url("https://app.excalidraw.com//dist/excalidraw-assets/Assistant-Regular.woff2");
      }
    </style>
    
  </defs>
  <g stroke-linecap="round" transform="translate(33.950521429371975 10) rotate(0 6.153946972362064 28.773878379124994)"><path d="M3.08 0 C4.04 0.5, 5.64 -0.21, 9.23 0 C12.05 -1.25, 14.74 2.26, 12.31 3.08 C10.67 25.51, 13.97 43.85, 12.31 54.47 C12.83 54.56, 11.73 55.53, 9.23 57.55 C7.38 57.41, 6.34 56.91, 3.08 57.55 C-0.36 57.84, 1.13 58.16, 0 54.47 C1.64 44.58, 0.98 32.33, 0 3.08 C0.71 -0.95, -1.52 0.66, 3.08 0" stroke="none" stroke-width="0" fill="#69db7c"></path><path d="M3.08 0 C5.08 -0.08, 7.63 -0.08, 9.23 0 M3.08 0 C4.99 -0.01, 6.75 0.06, 9.23 0 M9.23 0 C10.98 0.68, 11.39 1.46, 12.31 3.08 M9.23 0 C11.04 0.97, 12.13 0.34, 12.31 3.08 M12.31 3.08 C12.51 24.51, 13.14 43.99, 12.31 54.47 M12.31 3.08 C12.53 20.65, 12.64 38.34, 12.31 54.47 M12.31 54.47 C12.75 55.8, 11.59 56.8, 9.23 57.55 M12.31 54.47 C12.07 56.54, 10.89 58.27, 9.23 57.55 M9.23 57.55 C7.17 57.34, 4.69 57.27, 3.08 57.55 M9.23 57.55 C7.74 57.63, 6.59 57.5, 3.08 57.55 M3.08 57.55 C1.43 57.01, 0.5 56.32, 0 54.47 M3.08 57.55 C0.18 57.25, 0.36 56.31, 0 54.47 M0 54.47 C-0.07 39.58, 0.64 26.12, 0 3.08 M0 54.47 C0.12 35.02, -0.05 15.3, 0 3.08 M0 3.08 C0.5 1.22, 0.69 -0.24, 3.08 0 M0 3.08 C0.76 -0.03, 1.13 -0.02, 3.08 0" stroke="#343a40" stroke-width="2" fill="none"></path></g><g stroke-linecap="round" transform="translate(51.7470806590602 10) rotate(0 5.6549780931526925 22.78625944227329)"><path d="M2.83 0 C4.19 -0.23, 6.56 -0.4, 8.48 0 C12.8 1.23, 13.73 2.89, 11.31 2.83 C12.05 11.95, 11.41 18.39, 11.31 42.75 C11.76 42.61, 8.59 47.76, 8.48 45.57 C6.23 44.9, 3.66 45.64, 2.83 45.57 C2.07 47.21, -1.66 46.01, 0 42.75 C0.93 33.98, 0.31 19, 0 2.83 C-2.54 1.6, -0.81 -1.74, 2.83 0" stroke="none" stroke-width="0" fill="#ffd43b"></path><path d="M2.83 0 C4.57 -0.07, 6.03 -0.21, 8.48 0 M2.83 0 C4.71 0.06, 6.5 0.1, 8.48 0 M8.48 0 C9.45 0.43, 11.1 1.79, 11.31 2.83 M8.48 0 C10.19 -0.68, 12.45 1.92, 11.31 2.83 M11.31 2.83 C11.92 13.99, 11.69 25.98, 11.31 42.75 M11.31 2.83 C11.53 13.88, 11.56 23.59, 11.31 42.75 M11.31 42.75 C11.62 43.89, 10.16 45.59, 8.48 45.57 M11.31 42.75 C10.92 45.36, 11.26 44.46, 8.48 45.57 M8.48 45.57 C7.33 45.33, 5.76 45.29, 2.83 45.57 M8.48 45.57 C7.13 45.56, 5.65 45.51, 2.83 45.57 M2.83 45.57 C1.45 45.37, -0.74 44.37, 0 42.75 M2.83 45.57 C1.31 45.36, -0.28 43.49, 0 42.75 M0 42.75 C0.45 33.65, 0.86 25.2, 0 2.83 M0 42.75 C0.01 28.44, 0.13 14.5, 0 2.83 M0 2.83 C-0.33 0.71, 1.6 -0.92, 2.83 0 M0 2.83 C0.11 0.93, 0.29 0.49, 2.83 0" stroke="#343a40" stroke-width="2" fill="none"></path></g><g stroke-linecap="round" transform="translate(15.987611323190777 10) rotate(0 6.320275007872425 34.42886408593853)"><path d="M3.16 0 C5.7 -0.38, 8.53 0.41, 9.48 0 C14.01 1.94, 10.55 -1.08, 12.64 3.16 C13.53 25.31, 13.46 49.36, 12.64 65.7 C10.86 69.99, 13.98 67.48, 9.48 68.86 C7.31 68.88, 6.38 69.3, 3.16 68.86 C-0.61 70.23, -0.71 69.8, 0 65.7 C0.29 39.58, -2.96 18.08, 0 3.16 C-1.75 -0.69, 2.25 0.42, 3.16 0" stroke="none" stroke-width="0" fill="#4dabf7"></path><path d="M3.16 0 C4.86 -0.23, 6.68 0.19, 9.48 0 M3.16 0 C5 0.09, 6.79 0.06, 9.48 0 M9.48 0 C11.37 0.84, 12.48 0.46, 12.64 3.16 M9.48 0 C12.73 0.97, 12.45 1.04, 12.64 3.16 M12.64 3.16 C13.22 28.14, 12.48 52.19, 12.64 65.7 M12.64 3.16 C12.98 23.87, 12.91 44.93, 12.64 65.7 M12.64 65.7 C12.43 67.82, 11.25 69.49, 9.48 68.86 M12.64 65.7 C13.53 66.69, 10.69 69.84, 9.48 68.86 M9.48 68.86 C7.72 68.54, 6.32 68.59, 3.16 68.86 M9.48 68.86 C7.25 68.77, 4.98 68.82, 3.16 68.86 M3.16 68.86 C0.32 68.6, 0.32 67.62, 0 65.7 M3.16 68.86 C0.78 67.72, -0.82 67.44, 0 65.7 M0 65.7 C0.68 52.05, 0.43 37.61, 0 3.16 M0 65.7 C0.17 46.23, -0.25 26.44, 0 3.16 M0 3.16 C0.66 0.13, 1.15 -0.01, 3.16 0 M0 3.16 C-0.65 1.55, 1.18 -0.77, 3.16 0" stroke="#343a40" stroke-width="2" fill="none"></path></g><g stroke-linecap="round" transform="translate(67.54773391726735 10) rotate(0 5.342285040950401 15.967007941530596)"><path d="M2.67 0 C4.79 0.36, 6.26 0.55, 8.01 0 C7.7 -2.14, 12.91 2.05, 10.68 2.67 C11.21 8.99, 8.98 21.55, 10.68 29.26 C13.08 29.67, 9.11 31.8, 8.01 31.93 C7.19 32.38, 5.31 32.31, 2.67 31.93 C0.18 33.93, 2.24 32.37, 0 29.26 C-2.64 19.78, -1.85 7.24, 0 2.67 C1.19 1.31, -0.3 -1.21, 2.67 0" stroke="none" stroke-width="0" fill="#ff8787"></path><path d="M2.67 0 C4.2 0.18, 5.57 0.07, 8.01 0 M2.67 0 C4.38 0.04, 6.3 0.09, 8.01 0 M8.01 0 C9.64 -0.59, 11.68 1.74, 10.68 2.67 M8.01 0 C9.6 -0.02, 11.73 1.6, 10.68 2.67 M10.68 2.67 C10.38 10.44, 11.1 18.26, 10.68 29.26 M10.68 2.67 C10.9 12.9, 10.64 23.88, 10.68 29.26 M10.68 29.26 C10.34 31.67, 10.57 30.96, 8.01 31.93 M10.68 29.26 C9.78 32.03, 9.1 32.34, 8.01 31.93 M8.01 31.93 C6.73 31.7, 5.84 32.09, 2.67 31.93 M8.01 31.93 C6.58 31.89, 4.92 31.88, 2.67 31.93 M2.67 31.93 C1.21 31.75, -0.24 30.05, 0 29.26 M2.67 31.93 C0.07 31.56, -0.81 31.49, 0 29.26 M0 29.26 C0.44 21.81, 0.02 13.41, 0 2.67 M0 29.26 C-0.23 21.85, 0.26 14.22, 0 2.67 M0 2.67 C0.09 0.88, 0.33 0.43, 2.67 0 M0 2.67 C0.13 0.12, 1.63 -0.62, 2.67 0" stroke="#343a40" stroke-width="2" fill="none"></path></g><g stroke-linecap="round" transform="translate(10 15.8213175491544) rotate(0 38.087947628101546 4.158071455524549)"><path d="M2.08 0 C20.21 0, 38.34 0, 74.1 0 C75.48 0, 76.18 0.69, 76.18 2.08 C76.18 3.01, 76.18 3.95, 76.18 6.24 C76.18 7.62, 75.48 8.32, 74.1 8.32 C51.68 8.32, 29.26 8.32, 2.08 8.32 C0.69 8.32, 0 7.62, 0 6.24 C0 5.31, 0 4.38, 0 2.08 C0 0.69, 0.69 0, 2.08 0" stroke="none" stroke-width="0" fill="#ced4da"></path><path d="M2.08 0 C18.14 0, 34.2 0, 74.1 0 M2.08 0 C28.57 0, 55.06 0, 74.1 0 M74.1 0 C75.48 0, 76.18 0.69, 76.18 2.08 M74.1 0 C75.48 0, 76.18 0.69, 76.18 2.08 M76.18 2.08 C76.18 3.55, 76.18 5.03, 76.18 6.24 M76.18 2.08 C76.18 3.03, 76.18 3.98, 76.18 6.24 M76.18 6.24 C76.18 7.62, 75.48 8.32, 74.1 8.32 M76.18 6.24 C76.18 7.62, 75.48 8.32, 74.1 8.32 M74.1 8.32 C59.21 8.32, 44.33 8.32, 2.08 8.32 M74.1 8.32 C56.36 8.32, 38.63 8.32, 2.08 8.32 M2.08 8.32 C0.69 8.32, 0 7.62, 0 6.24 M2.08 8.32 C0.69 8.32, 0 7.62, 0 6.24 M0 6.24 C0 4.7, 0 3.16, 0 2.08 M0 6.24 C0 4.91, 0 3.58, 0 2.08 M0 2.08 C0 0.69, 0.69 0, 2.08 0 M0 2.08 C0 0.69, 0.69 0, 2.08 0" stroke="#1e1e1e" stroke-width="1" fill="none"></path></g></svg>